<svg xmlns="http://www.w3.org/2000/svg" width="17" height="14" fill="none"><path d="M0 0h17v14H0z"/><path fill="#F58220" fill-rule="evenodd" d="M16.29 0v1.023c-1.447.528-2.58 1.36-3.402 2.494-.82 1.134-1.231 2.313-1.231 3.538 0 .264.041.459.125.584.056.084.118.125.188.125s.174-.048.313-.146c.445-.32 1.009-.48 1.69-.48.794 0 1.496.324 2.109.97.612.648.918 1.417.918 2.307 0 .932-.351 1.753-1.054 2.463a3.465 3.465 0 0 1-2.557 1.064c-1.169 0-2.178-.48-3.026-1.44-.85-.96-1.273-2.247-1.273-3.861 0-1.879.577-3.562 1.732-5.051C11.977 2.101 13.8.904 16.29 0zM7.2 0v1.023c-1.445.527-2.58 1.36-3.4 2.494C2.978 4.65 2.567 5.83 2.567 7.055c0 .264.042.459.125.584.056.084.119.125.188.125.07 0 .174-.048.313-.146.446-.32 1.01-.48 1.691-.48.793 0 1.496.324 2.108.97.612.648.918 1.417.918 2.307 0 .932-.35 1.753-1.054 2.463A3.464 3.464 0 0 1 4.3 13.942c-1.17 0-2.178-.48-3.027-1.44C.424 11.542 0 10.255 0 8.641 0 6.762.577 5.079 1.732 3.59 2.887 2.101 4.71.904 7.201 0z" clip-rule="evenodd"/></svg>